<?xml version="1.0" encoding="utf-8"?>
<!-- Generator: Adobe Illustrator 24.0.3, SVG Export Plug-In . SVG Version: 6.00 Build 0)  -->
<svg version="1.1" xmlns="http://www.w3.org/2000/svg" xmlns:xlink="http://www.w3.org/1999/xlink" x="0px" y="0px"
	 viewBox="0 0 350 333" style="enable-background:new 0 0 350 333;" xml:space="preserve">
<style type="text/css">
	.st0{fill:#3B3537;}
	.st1{display:none;fill:#3B3537;}
	.st2{display:none;fill:#D33D2F;stroke:#000000;stroke-miterlimit:10;}
	.st3{display:none;fill:#D33D2F;stroke:#000000;stroke-width:2;stroke-miterlimit:10;}
	.st4{font-family:'MyriadPro-Regular';}
	.st5{font-size:55px;}
	.st6{letter-spacing:2;}
	.st7{fill:#FFFFFF;}
	.st8{fill:#FFFFFF;stroke:#000000;stroke-miterlimit:10;}
	.st9{stroke:#000000;stroke-width:2;stroke-miterlimit:10;}
</style>
<g id="second">
	<g>
		<path class="st0" d="M260.4,49.7c-21.7-18.6-47.4-29.8-73.7-33.9c-49-7.5-100.6,9.7-135.2,50.1c-53.2,62.2-46,155.8,16.2,209
			c21.8,18.6,47.4,29.9,73.8,33.9c49,7.5,100.6-9.7,135.2-50.1C329.9,196.5,322.6,103,260.4,49.7z M289.2,205.3l-45.3-15.6
			c6.1-17.8,6-37.1,0-54.7l45.3-15.6c3.6,10.5,5.9,21.4,6.7,32.7C297.3,170.5,295,188.5,289.2,205.3z M291.7,118.2L291.7,118.2
			L291.7,118.2z M263.7,75.6l-36.1,31.3c-2.7-3.1-5.6-6-8.8-8.7c-11.5-9.8-24.8-16-38.6-18.7l9.1-46.7c22.3,4.3,43.2,14.3,60.6,29.2
			C254.9,66.2,259.5,70.8,263.7,75.6z M119.1,38.1c6.4-2.3,13-4.1,19.7-5.4l9.1,46.8c-17.8,3.5-34.6,12.7-47.4,27.3L64.3,75.5
			C79.1,58.5,98,45.7,119.1,38.1z M38.9,119.3l45.3,15.6c-6.1,17.8-6,37.1,0,54.7l-45.3,15.6c-3.6-10.4-5.8-21.4-6.7-32.7
			C30.8,154.3,33.1,136.2,38.9,119.3z M64.3,249.2l36.1-31.4c2.7,3.1,5.6,6,8.8,8.7c11.5,9.8,24.8,16,38.6,18.7l-9.1,47
			c-22.3-4.3-43.2-14.4-60.6-29.3C73.1,258.6,68.5,254,64.3,249.2z M209,286.7c-6.4,2.3-13,4.1-19.7,5.4l-9.1-47
			c17.8-3.5,34.6-12.7,47.4-27.3l36.1,31.4C249,266.2,230.1,279.1,209,286.7z"/>
		<circle class="st1" cx="109.2" cy="67.6" r="8"/>
		<circle class="st1" cx="54.6" cy="162.5" r="8"/>
		<circle class="st1" cx="109.4" cy="257.2" r="8"/>
		<circle class="st1" cx="218.9" cy="257.1" r="8"/>
		<circle class="st1" cx="273.5" cy="162.2" r="8"/>
		<circle class="st1" cx="218.7" cy="67.5" r="8"/>
	</g>
	<circle class="st2" cx="162.3" cy="169.2" r="70"/>
	<text transform="matrix(1 0 0 1 121.0617 188.9918)" class="st3 st4 st5 st6">100</text>
</g>
<g id="first_1_">
	<circle class="st7" cx="190.2" cy="162" r="148.2"/>
	<g>
		<path class="st0" d="M286.5,49.5c-21.7-18.6-47.4-29.8-73.7-33.9c-49-7.5-100.6,9.7-135.2,50.1c-53.2,62.2-46,155.8,16.2,209
			c21.8,18.6,47.4,29.9,73.8,33.9c49,7.5,100.6-9.7,135.2-50.1C356,196.3,348.7,102.8,286.5,49.5z M315.3,205.1L270,189.5
			c6.1-17.8,6-37.1,0-54.7l45.3-15.6c3.6,10.5,5.9,21.4,6.7,32.7C323.4,170.3,321.1,188.3,315.3,205.1z M317.8,118L317.8,118
			L317.8,118z M289.8,75.4l-36.1,31.3c-2.7-3.1-5.6-6-8.8-8.7c-11.5-9.8-24.8-16-38.6-18.7l9.1-46.7c22.3,4.3,43.2,14.3,60.6,29.2
			C281,66,285.6,70.6,289.8,75.4z M145.2,37.9c6.4-2.3,13-4.1,19.7-5.4l9.1,46.8c-17.8,3.5-34.6,12.7-47.4,27.3L90.4,75.3
			C105.2,58.3,124.1,45.5,145.2,37.9z M65,119.1l45.3,15.6c-6.1,17.8-6,37.1,0,54.7L65,205c-3.6-10.4-5.8-21.4-6.7-32.7
			C56.9,154.1,59.2,136,65,119.1z M90.4,249l36.1-31.4c2.7,3.1,5.6,6,8.8,8.7c11.5,9.8,24.8,16,38.6,18.7l-9.1,47
			c-22.3-4.3-43.2-14.4-60.6-29.3C99.2,258.4,94.6,253.8,90.4,249z M235.1,286.5c-6.4,2.3-13,4.1-19.7,5.4l-9.1-47
			c17.8-3.5,34.6-12.7,47.4-27.3l36.1,31.4C275.1,266,256.2,278.9,235.1,286.5z"/>
		<circle class="st0" cx="135.3" cy="67.4" r="8"/>
		<circle class="st0" cx="80.7" cy="162.3" r="8"/>
		<circle class="st0" cx="135.5" cy="257" r="8"/>
		<circle class="st0" cx="245" cy="256.9" r="8"/>
		<circle class="st0" cx="299.6" cy="162" r="8"/>
		<circle class="st0" cx="244.8" cy="67.3" r="8"/>
	</g>
	<circle class="st8" cx="190.2" cy="162" r="70"/>
	<text transform="matrix(1 0 0 1 180.2397 181.6921)" class="st9 st4 st5 st6">1</text>
</g>
</svg>
